P1
# Created by GIMP version 2.10.20 PNM plug-in
24 24
0000000000000000000000000000000000010000000000010000000000111000000001
1110000000001110000001111111100000111111100011111011110011111111111011
1100011001111111111111111000000001111110111111010000000011111000001111
1000000000111100000001111000000000111100000001111000000010111000000000
1110000001111111000000011110110000101111000000011111111000001111100000
1111101100000001111110111111000000000001111111111111000000000000111111
1111110000000000100011111110111000000001110000001000111000000011110000
0111000111000001111100000111000011100011111000000111000001111011100000
0001110000001111