P1
# Created by GIMP version 2.10.20 PNM plug-in
24 24
0000000000000000100000000000000000000001100000000000000000000011100000
0000000000000001111000000000000000000011111000000000000000000111111000
0000000000000011111110000000001111111111111110000000001111111111001110
0000000011111111100011100000000011100000000011100000000011100000000011
1000000000111000000000111000000000111000000000111000000000111111111000
1110000000001111111111001110000000001111111111111110000000000000000011
1111100000000000000000011111100000000000000000001111100000000000000000
0001111000000000000000000000111000000000000000000000011000000000000000
0000000010000000